<svg width="22" height="20" viewBox="0 0 26 24" fill="none" xmlns="http://www.w3.org/2000/svg">
    <rect x="0.5" width="24.766" height="24" rx="3" fill="#FF7900" fill-opacity="0.1"/>
    <path d="M12.8918 16.5019C12.7255 16.5019 12.5695 16.4736 12.4239 16.4169C12.2783 16.3602 12.1431 16.2628 12.0183 16.1248L6.27803 9.8162C6.04925 9.56477 5.92946 9.25025 5.91864 8.87265C5.90783 8.49505 6.02762 8.16956 6.27803 7.89619C6.50681 7.64476 6.79799 7.51905 7.15155 7.51905C7.50512 7.51905 7.7963 7.64476 8.02508 7.89619L12.8918 13.2105L17.7586 7.89619C17.9874 7.64476 18.2736 7.51356 18.6172 7.50259C18.9607 7.49162 19.2569 7.62282 19.5056 7.89619C19.7344 8.14762 19.8488 8.46762 19.8488 8.85619C19.8488 9.24477 19.7344 9.56477 19.5056 9.8162L13.7654 16.1248C13.6406 16.2619 13.5054 16.3593 13.3598 16.4169C13.2142 16.4745 13.0582 16.5028 12.8918 16.5019Z" fill="#FAA762"/>
</svg>
