<svg width="24" height="18" viewBox="0 0 24 18" fill="none" xmlns="http://www.w3.org/2000/svg">
<path d="M12.8581 17.7391V12.6708H16.2869L12.0009 7.60248L7.71484 12.6708H11.1437V17.7391H6.85763V17.6969C6.71362 17.7053 6.57647 17.7391 6.42903 17.7391C4.72395 17.7391 3.0887 17.0717 1.88302 15.8835C0.677342 14.6954 0 13.084 0 11.4037C0 8.15324 2.49446 5.5042 5.69526 5.14097C5.97589 3.6953 6.75896 2.39118 7.90978 1.45292C9.06059 0.514653 10.5072 0.000892048 12.0009 0C13.4947 0.000823879 14.9416 0.514524 16.0927 1.45277C17.2438 2.39101 18.0272 3.69516 18.3082 5.14097C21.509 5.5042 24 8.15324 24 11.4037C24 13.084 23.3227 14.6954 22.117 15.8835C20.9113 17.0717 19.2761 17.7391 17.571 17.7391C17.427 17.7391 17.2881 17.7053 17.1424 17.6969V17.7391H12.8581Z" fill="#F3A041"/>
</svg>
